<svg xmlns="http://www.w3.org/2000/svg" viewBox="0 0 2472.04 993.81">
  <defs>
    <style>
      .cls-1 {
        fill: #ffc100;
      }

      .cls-2 {
        fill: #009;
      }

      .cls-3 {
        fill: #385723;
      }
    </style>
  </defs>
  <g id="Calque_2" data-name="Calque 2">
    <g>
      <circle class="cls-1" cx="544.38" cy="241.9" r="106.77"/>
      <g>
        <path class="cls-2" d="M590.82-110.28h43.41v67.61H622.76l-2.87-16.48Q610-41.24,588.63-41.25q-21.76,0-34-17.66t-12.26-47.94q0-31.89,12.13-50.51T591.72-176q35,0,41.85,39.6l-19.43,4.86q-3.42-16.76-9.21-21.71a20.42,20.42,0,0,0-13.69-4.95q-26.13,0-26.13,49.42,0,49.69,26.75,49.7Q614-59,614.05-93H590.82Z" transform="translate(279.9 175.97)"/>
        <path class="cls-2" d="M655.56-139.79H673v21.52q8-23.52,24.07-23.52a27.43,27.43,0,0,1,3.63.28v20.66a36.48,36.48,0,0,0-4-.28q-21.31,0-21.31,28.56v48.94H655.56Z" transform="translate(279.9 175.97)"/>
        <path class="cls-2" d="M782.58-92.66q0,51.42-38.09,51.41-17.52,0-27.56-12.42t-10-38q0-50.37,38.09-50.37,17.32,0,27.47,12.28T782.58-92.66Zm-21.14,1q0-20.25-4.51-27.82T744.73-127Q728-127,728-91.66q0,18.06,3.89,26.72t12.82,8.65q8.84,0,12.77-8.8T761.44-91.66Z" transform="translate(279.9 175.97)"/>
        <path class="cls-2" d="M800.67-139.79h19.81v61.12q0,12.77,2.1,17.1t9.27,4.33q8.88,0,12.42-7.71t3.53-28.57v-46.27h19.81v96.16H849.33V-58.1q-7.71,16.86-24.43,16.85-8.55,0-14-3.61a19.92,19.92,0,0,1-7.84-10.29q-2.38-6.66-2.38-23.13Z" transform="translate(279.9 175.97)"/>
        <path class="cls-2" d="M891.12-139.79h18.29V-124q7.5-17.42,23.76-17.42,14.54,0,23.48,12.71t8.93,36.23q0,21-8.11,35.8T932.28-41.91q-13.66,0-21.35-11.71v42.56H891.12Zm19.81,55.92a59.27,59.27,0,0,0,1.37,14.41,17.25,17.25,0,0,0,5.64,8.84A14.38,14.38,0,0,0,927.59-57q16.86,0,16.85-35.56,0-34.41-16.47-34.42-7.29,0-12.17,7t-4.87,20.06Z" transform="translate(279.9 175.97)"/>
        <path class="cls-2" d="M1054-88.76H999.67q0,19.47,5.27,26a16.37,16.37,0,0,0,13.25,6.5q13.29,0,16.8-17.9l18.19,2.38q-7.14,30.57-35.61,30.56-17.43,0-27.8-12.47T979.39-90.28q0-24.75,10.47-38.28t28-13.52q12.27,0,20.66,6.76a36,36,0,0,1,11.8,17.76Q1053.75-106.56,1054-88.76Zm-20.28-13.42q0-25.42-16.57-25.43-15.53,0-17,25.43Z" transform="translate(279.9 175.97)"/>
        <path class="cls-2" d="M1070.51-139.79h18.28v14.66q7-17,23.68-17,18.27,0,22,17.9,6.75-17.9,24.35-17.9,8.75,0,14.6,3.81a19.92,19.92,0,0,1,8.13,10.09q2.28,6.29,2.28,23.71v60.84H1164v-59.15q0-13.6-2.34-18.45t-9.41-4.85q-15.1,0-15.1,26.15v56.3h-19.81v-58.49q0-12.45-1-16.12a10.48,10.48,0,0,0-3.71-5.75,11.16,11.16,0,0,0-7-2.09q-8.28,0-11.8,6.23t-3.53,20.4v55.82h-19.8Z" transform="translate(279.9 175.97)"/>
        <path class="cls-2" d="M1276.55-88.76h-54.36q0,19.47,5.27,26a16.37,16.37,0,0,0,13.24,6.5q13.3,0,16.81-17.9l18.19,2.38q-7.14,30.57-35.61,30.56-17.43,0-27.81-12.47t-10.37-36.56q0-24.75,10.47-38.28t28-13.52q12.29,0,20.66,6.76a35.92,35.92,0,0,1,11.81,17.76Q1276.28-106.56,1276.55-88.76Zm-20.28-13.42q0-25.42-16.56-25.43-15.53,0-17,25.43Z" transform="translate(279.9 175.97)"/>
        <path class="cls-2" d="M1293-139.79h18.28v14.85q6.68-17.15,23.85-17.14,9.72,0,15.69,4.67a20,20,0,0,1,7.54,11.19q1.58,6.51,1.57,20.61v62h-19.8v-60.86q0-12.56-2.2-17.07t-9.36-4.52a13.52,13.52,0,0,0-11.61,5.75q-4.15,5.76-4.16,22.87v53.83H1293Z" transform="translate(279.9 175.97)"/>
        <path class="cls-2" d="M1386.24-164.83l17.9-1.72v26.76h18.38v16h-18.38v42.41a120.94,120.94,0,0,0,.57,14.88,9.37,9.37,0,0,0,3.43,6q2.86,2.33,9.52,2.33a55.53,55.53,0,0,0,8-.67V-43a70.67,70.67,0,0,1-14.85,1.72q-11.14,0-17-4.33a19.16,19.16,0,0,1-7.52-11.76q-1.62-7.42-1.62-22.66v-43.8h-12.47v-16h13Z" transform="translate(279.9 175.97)"/>
        <path class="cls-2" d="M546.64,55.41h21.52V109.3h38.27V55.41H628v130H606.43V127.48H568.16v57.89H546.64Z" transform="translate(279.9 175.97)"/>
        <path class="cls-2" d="M723.07,136.34q0,51.42-38.09,51.41-17.52,0-27.56-12.42t-10-38q0-50.37,38.09-50.37,17.32,0,27.47,12.28T723.07,136.34Zm-21.14,1q0-20.25-4.51-27.82T685.22,102q-16.71,0-16.71,35.37,0,18.06,3.89,26.72t12.82,8.65q8.84,0,12.77-8.8T701.93,137.34Z" transform="translate(279.9 175.97)"/>
        <path class="cls-2" d="M799.72,111.68l-15.52,4.19q-4.29-14.48-16.28-14.48a12,12,0,0,0-8.91,3.43,11.62,11.62,0,0,0-3.38,8.48c0,3.8,1.15,6.6,3.43,8.38s7.52,4,15.71,6.66q15.13,5.06,21.81,11.38t6.66,17.66A28.24,28.24,0,0,1,793.72,179q-9.53,8.81-25.71,8.8-30.56,0-34.66-28l16.86-3.14q3.22,16.56,18.37,16.57,7.71,0,11.48-3.81a12.48,12.48,0,0,0,3.76-9,12.26,12.26,0,0,0-2.57-7.19q-2.58-3.57-14.38-7.38A102.24,102.24,0,0,1,749.78,139a25.44,25.44,0,0,1-9.48-9.09,25,25,0,0,1-3.71-13.47,27.91,27.91,0,0,1,8.95-20.9q9-8.62,23.14-8.62Q792.77,86.92,799.72,111.68Z" transform="translate(279.9 175.97)"/>
        <path class="cls-2" d="M818.29,89.21h18.28V105q7.5-17.42,23.76-17.42,14.53,0,23.48,12.71t8.93,36.23q0,21-8.11,35.8t-25.19,14.76q-13.66,0-21.35-11.71v42.56h-19.8Zm19.8,55.92a59.27,59.27,0,0,0,1.37,14.41,17.32,17.32,0,0,0,5.64,8.84,14.41,14.41,0,0,0,9.65,3.66q16.86,0,16.86-35.56,0-34.41-16.48-34.42-7.29,0-12.16,7t-4.88,20.06Z" transform="translate(279.9 175.97)"/>
        <path class="cls-2" d="M931.69,76.26H910.83v-21h20.86ZM911.31,89.21h19.8v96.16h-19.8Z" transform="translate(279.9 175.97)"/>
        <path class="cls-2" d="M958.06,64.17,976,62.45V89.21h18.38v16H976v42.41a120.94,120.94,0,0,0,.57,14.88,9.37,9.37,0,0,0,3.43,6c1.9,1.55,5.08,2.33,9.52,2.33a55.53,55.53,0,0,0,8-.67V186a70.67,70.67,0,0,1-14.85,1.72q-11.14,0-17-4.33a19.16,19.16,0,0,1-7.52-11.76q-1.62-7.42-1.62-22.66V105.2H944v-16h13Z" transform="translate(279.9 175.97)"/>
        <path class="cls-2" d="M1029.09,116.44,1010,114.06q1.9-12.86,11.84-20t24.39-7.14q12.93,0,20.68,5.19t9.75,12.33q2,7.14,2,21.61v32.76q0,19.91,1.72,26.56h-18.76q-1.24-5.24-1.24-16-9,18.38-27,18.37-12.16,0-19.54-7.47T1006.43,160q0-15.7,10.79-24.85t37.4-9.14c.88,0,2.28,0,4.18.09v-3.9q0-10.28-3.09-15.52t-11-5.24Q1031.66,101.39,1029.09,116.44Zm29.71,22.09q-3.79-.37-5.79-.38-25.83,0-25.82,20.28,0,14.76,12.81,14.76,7.5,0,13.15-8t5.65-22Z" transform="translate(279.9 175.97)"/>
        <path class="cls-2" d="M1101,55.41h19.8v130H1101Z" transform="translate(279.9 175.97)"/>
        <path class="cls-2" d="M1164.49,76.26h-20.86v-21h20.86Zm-20.38,12.95h19.8v96.16h-19.8Z" transform="translate(279.9 175.97)"/>
        <path class="cls-2" d="M1257.23,140.24h-54.37q0,19.47,5.27,26a16.37,16.37,0,0,0,13.25,6.5q13.29,0,16.8-17.9l18.19,2.38q-7.14,30.57-35.61,30.56-17.43,0-27.8-12.47t-10.38-36.56q0-24.75,10.47-38.28t28-13.52q12.29,0,20.67,6.76a36,36,0,0,1,11.8,17.76Q1256.95,122.44,1257.23,140.24ZM1237,126.82q0-25.42-16.57-25.43-15.53,0-17.05,25.43Z" transform="translate(279.9 175.97)"/>
        <path class="cls-2" d="M1273.7,89.21h17.42v21.52q8-23.52,24.08-23.52a27.43,27.43,0,0,1,3.63.28v20.66a36.79,36.79,0,0,0-4-.28q-21.32,0-21.32,28.56v48.94h-19.8Z" transform="translate(279.9 175.97)"/>
        <path class="cls-1" d="M1413.19,55.41H1433v130h-18.28V170.81q-6.93,16.27-23.82,16.28-16.23,0-24.34-13.62t-8.11-35.7q0-23.72,9-37t23.86-13.23q15.66,0,21.92,12.76Zm0,73.37q0-14.84-5.59-20.78t-11.55-5.94q-16.47,0-16.47,33.85,0,36.14,16.66,36.13,6.43,0,11.69-6t5.26-20.82Z" transform="translate(279.9 175.97)"/>
        <path class="cls-1" d="M1526.11,140.24h-54.36q0,19.47,5.26,26a16.39,16.39,0,0,0,13.25,6.5q13.29,0,16.81-17.9l18.19,2.38q-7.14,30.57-35.61,30.56-17.43,0-27.81-12.47t-10.38-36.56q0-24.75,10.48-38.28t28-13.52q12.28,0,20.66,6.76a36,36,0,0,1,11.81,17.76Q1525.82,122.44,1526.11,140.24Zm-20.28-13.42q0-25.42-16.57-25.43-15.51,0-17,25.43Z" transform="translate(279.9 175.97)"/>
        <path class="cls-1" d="M1564.1,55.41h79.41V73.69h-29V185.37H1593V73.69H1564.1Z" transform="translate(279.9 175.97)"/>
        <path class="cls-1" d="M1714.73,140.24h-54.37q0,19.47,5.27,26a16.39,16.39,0,0,0,13.25,6.5q13.29,0,16.81-17.9l18.19,2.38q-7.16,30.57-35.62,30.56-17.41,0-27.8-12.47t-10.38-36.56q0-24.75,10.48-38.28t28-13.52q12.29,0,20.66,6.76A36,36,0,0,1,1711,111.44Q1714.44,122.44,1714.73,140.24Zm-20.28-13.42q0-25.42-16.57-25.43-15.51,0-17,25.43Z" transform="translate(279.9 175.97)"/>
        <path class="cls-1" d="M1731.21,89.21h17.42v21.52q8-23.52,24.08-23.52a27.55,27.55,0,0,1,3.63.28v20.66a36.79,36.79,0,0,0-4-.28q-21.32,0-21.31,28.56v48.94h-19.8Z" transform="translate(279.9 175.97)"/>
        <path class="cls-1" d="M1784.33,89.21h17.43v21.52q8-23.52,24.08-23.52a27.67,27.67,0,0,1,3.63.28v20.66a36.79,36.79,0,0,0-4-.28q-21.32,0-21.31,28.56v48.94h-19.81Z" transform="translate(279.9 175.97)"/>
        <path class="cls-1" d="M1857.84,76.26H1837v-21h20.85Zm-20.38,12.95h19.81v96.16h-19.81Z" transform="translate(279.9 175.97)"/>
        <path class="cls-1" d="M1884.21,64.17l17.91-1.72V89.21h18.37v16h-18.37v42.41a120.94,120.94,0,0,0,.57,14.88,9.36,9.36,0,0,0,3.42,6c1.91,1.55,5.08,2.33,9.53,2.33a55.52,55.52,0,0,0,8-.67V186a70.67,70.67,0,0,1-14.85,1.72q-11.15,0-17-4.33a19.13,19.13,0,0,1-7.53-11.76q-1.62-7.42-1.61-22.66V105.2h-12.48v-16h13.05Z" transform="translate(279.9 175.97)"/>
        <path class="cls-1" d="M2005.9,136.34q0,51.42-38.09,51.41-17.52,0-27.56-12.42t-10-38q0-50.37,38.08-50.37,17.32,0,27.47,12.28T2005.9,136.34Zm-21.14,1q0-20.25-4.51-27.82t-12.2-7.55q-16.71,0-16.71,35.37,0,18.06,3.89,26.72t12.82,8.65q8.84,0,12.77-8.8T1984.76,137.34Z" transform="translate(279.9 175.97)"/>
        <path class="cls-1" d="M2045,76.26h-20.85v-21H2045Zm-20.37,12.95h19.8v96.16h-19.8Z" transform="translate(279.9 175.97)"/>
        <path class="cls-1" d="M2067.88,89.21h17.43v21.52q8-23.52,24.08-23.52a27.55,27.55,0,0,1,3.63.28v20.66a36.79,36.79,0,0,0-4-.28q-21.32,0-21.31,28.56v48.94h-19.81Z" transform="translate(279.9 175.97)"/>
        <path class="cls-1" d="M2190.9,140.24h-54.37q0,19.47,5.27,26a16.39,16.39,0,0,0,13.25,6.5q13.29,0,16.81-17.9l18.18,2.38q-7.14,30.57-35.61,30.56-17.41,0-27.8-12.47t-10.38-36.56q0-24.75,10.48-38.28t28-13.52q12.29,0,20.66,6.76a36,36,0,0,1,11.81,17.76Q2190.61,122.44,2190.9,140.24Zm-20.28-13.42q0-25.42-16.57-25.43-15.51,0-17,25.43Z" transform="translate(279.9 175.97)"/>
      </g>
      <g>
        <path class="cls-2" d="M359.3,674.24h15.81v24.61h-4.18l-1.05-6q-3.6,6.52-11.38,6.52a14.26,14.26,0,0,1-12.39-6.43q-4.46-6.44-4.46-17.45,0-11.62,4.42-18.4t13.55-6.77q12.75,0,15.24,14.42l-7.07,1.77q-1.25-6.1-3.36-7.91a7.4,7.4,0,0,0-5-1.8q-9.51,0-9.51,18t9.73,18.1q8.08,0,8.09-12.38H359.3Z" transform="translate(279.9 175.97)"/>
        <path class="cls-2" d="M389.25,673.41l-7-.87a10.44,10.44,0,0,1,4.31-7.28,14.76,14.76,0,0,1,8.88-2.6,13.33,13.33,0,0,1,7.53,1.89,8.1,8.1,0,0,1,3.55,4.49,31.72,31.72,0,0,1,.72,7.87v11.92q0,7.24.63,9.68h-6.83a27.68,27.68,0,0,1-.45-5.83q-3.28,6.69-9.83,6.69a9.52,9.52,0,0,1-7.11-2.72,10.07,10.07,0,0,1-2.68-7.4,11.23,11.23,0,0,1,3.92-9q3.93-3.33,13.62-3.33c.32,0,.83,0,1.52,0v-1.42a11.39,11.39,0,0,0-1.12-5.66c-.75-1.27-2.09-1.9-4-1.9C391.76,667.93,389.87,669.75,389.25,673.41Zm10.81,8c-.92-.09-1.62-.14-2.11-.14q-9.39,0-9.4,7.38,0,5.38,4.67,5.38,2.73,0,4.79-2.91t2.05-8Z" transform="translate(279.9 175.97)"/>
        <path class="cls-2" d="M415.24,663.49h6.66v5.76q2.73-6.35,8.65-6.35a10,10,0,0,1,8.55,4.63q3.25,4.62,3.25,13.19a26.74,26.74,0,0,1-3,13,9.78,9.78,0,0,1-9.17,5.37,8.79,8.79,0,0,1-7.77-4.27v15.5h-7.22Zm7.22,20.36a21.19,21.19,0,0,0,.5,5.25,6.24,6.24,0,0,0,2.05,3.22,5.22,5.22,0,0,0,3.51,1.33q6.14,0,6.14-12.95,0-12.53-6-12.53a5.24,5.24,0,0,0-4.43,2.56q-1.77,2.57-1.77,7.31Z" transform="translate(279.9 175.97)"/>
        <path class="cls-2" d="M447.48,677.84h15v5.79h-15Z" transform="translate(279.9 175.97)"/>
        <path class="cls-2" d="M497.85,661.76l-6.69,2.32a12.73,12.73,0,0,0-3.1-5.56,7.43,7.43,0,0,0-5.25-1.79,6.15,6.15,0,0,0-4.77,1.83,6,6,0,0,0-1.68,4.19,5.09,5.09,0,0,0,1.89,4.15q1.89,1.54,7.54,3.7a42,42,0,0,1,7.42,3.5A12.59,12.59,0,0,1,499,685a13.82,13.82,0,0,1-4.21,10.16q-4.21,4.19-11.81,4.19-13.1,0-16.22-13.24l7-2q1.84,8.75,9.57,8.74a7.77,7.77,0,0,0,5.74-2,6.61,6.61,0,0,0,2-4.84,6.32,6.32,0,0,0-1.36-3.91q-1.35-1.81-6.72-3.85a57.36,57.36,0,0,1-8.2-3.64,12.87,12.87,0,0,1-6-11,12.76,12.76,0,0,1,3.94-9.5q3.93-3.84,10.45-3.84Q494.66,650.32,497.85,661.76Z" transform="translate(279.9 175.97)"/>
        <path class="cls-2" d="M513,658.78h-7.59v-7.67H513Zm-7.42,4.71h7.22v35h-7.22Z" transform="translate(279.9 175.97)"/>
        <path class="cls-2" d="M542.22,671.67l-5.65,1.53c-1-3.52-3-5.27-5.93-5.27a4.32,4.32,0,0,0-3.24,1.25,4.22,4.22,0,0,0-1.23,3.08,3.59,3.59,0,0,0,1.25,3,22.17,22.17,0,0,0,5.72,2.43q5.5,1.83,7.94,4.14a8.47,8.47,0,0,1,2.42,6.43,10.3,10.3,0,0,1-3.46,7.86q-3.48,3.2-9.36,3.2-11.13,0-12.62-10.19l6.13-1.14q1.18,6,6.69,6a5.61,5.61,0,0,0,4.18-1.39,4.53,4.53,0,0,0,1.37-3.29,4.43,4.43,0,0,0-.94-2.62c-.62-.87-2.37-1.76-5.23-2.69a36.76,36.76,0,0,1-6.22-2.46,9.18,9.18,0,0,1-3.45-3.31,9.08,9.08,0,0,1-1.36-4.9,10.17,10.17,0,0,1,3.26-7.61,11.62,11.62,0,0,1,8.43-3.14Q539.69,662.66,542.22,671.67Z" transform="translate(279.9 175.97)"/>
        <path class="cls-2" d="M550.74,654.37l6.52-.62v9.74H564v5.82h-6.69v15.44a43.51,43.51,0,0,0,.21,5.42,3.36,3.36,0,0,0,1.25,2.18,5.5,5.5,0,0,0,3.47.85,20.28,20.28,0,0,0,2.91-.24v5.78a25.72,25.72,0,0,1-5.41.63,10.34,10.34,0,0,1-6.21-1.58,7,7,0,0,1-2.74-4.28,42.5,42.5,0,0,1-.58-8.25v-16h-4.55v-5.82h4.75Z" transform="translate(279.9 175.97)"/>
        <path class="cls-2" d="M594.46,682.07h-19.8q0,7.09,1.92,9.46a6,6,0,0,0,4.82,2.36q4.85,0,6.12-6.51l6.63.86q-2.61,11.13-13,11.13a12.48,12.48,0,0,1-10.12-4.54q-3.78-4.55-3.78-13.31,0-9,3.81-13.94a12.24,12.24,0,0,1,10.19-4.92,11.62,11.62,0,0,1,7.53,2.46,13.17,13.17,0,0,1,4.3,6.47A38.31,38.31,0,0,1,594.46,682.07Zm-7.39-4.89q0-9.25-6-9.25-5.65,0-6.2,9.25Z" transform="translate(279.9 175.97)"/>
        <path class="cls-2" d="M600.31,663.49h6.35v7.84q2.93-8.57,8.76-8.57a10.14,10.14,0,0,1,1.33.11v7.52a13.16,13.16,0,0,0-1.47-.1q-7.75,0-7.76,10.4v17.82h-7.21Z" transform="translate(279.9 175.97)"/>
        <path class="cls-2" d="M646.42,680.65q0,18.72-13.87,18.72a12.2,12.2,0,0,1-10-4.52q-3.66-4.53-3.66-13.85,0-18.35,13.86-18.34a12.3,12.3,0,0,1,10,4.47Q646.42,671.6,646.42,680.65Zm-7.7.36c0-4.91-.55-8.29-1.64-10.12a5,5,0,0,0-4.44-2.75q-6.09,0-6.09,12.87c0,4.39.48,7.63,1.42,9.73a5,5,0,0,0,9.32,0Q638.72,687.49,638.72,681Z" transform="translate(279.9 175.97)"/>
        <path class="cls-2" d="M653.11,663.49h6.65v5.41q2.43-6.24,8.69-6.24a9,9,0,0,1,5.71,1.7,7.25,7.25,0,0,1,2.74,4.07,34.6,34.6,0,0,1,.58,7.51v22.57h-7.21V676.34c0-3-.27-5.12-.8-6.21s-1.67-1.65-3.41-1.65a4.92,4.92,0,0,0-4.23,2.1q-1.51,2.08-1.51,8.33v19.6h-7.21Z" transform="translate(279.9 175.97)"/>
        <path class="cls-2" d="M717.39,679.81a7.44,7.44,0,0,1-2.21,5.41,7.46,7.46,0,0,1-10.72,0,7.75,7.75,0,0,1,0-10.83,7.45,7.45,0,0,1,10.69,0A7.43,7.43,0,0,1,717.39,679.81Z" transform="translate(279.9 175.97)"/>
        <path class="cls-2" d="M742.74,651.18h14.32a29.43,29.43,0,0,1,8.22.87,8.81,8.81,0,0,1,4.75,3.87,13.15,13.15,0,0,1,1.94,7.29q0,7.88-7,10.37,8.49,2.67,8.49,11.89a13.56,13.56,0,0,1-3.34,9.13q-3.35,3.92-12.81,3.91H742.74Zm7.67,19.62h5q5.24,0,6.9-1.92a7.32,7.32,0,0,0,1.67-5q0-3.57-1.91-5.12c-1.27-1-3.24-1.54-5.89-1.54h-5.72Zm0,21.43h6.3q8.67,0,8.67-7.66a8.43,8.43,0,0,0-1.84-5.34c-1.22-1.57-3.72-2.36-7.48-2.36h-5.65Z" transform="translate(279.9 175.97)"/>
        <path class="cls-2" d="M781,663.49h6.35v7.84q2.92-8.57,8.76-8.57a10,10,0,0,1,1.33.11v7.52a13.16,13.16,0,0,0-1.47-.1q-7.76,0-7.76,10.4v17.82H781Z" transform="translate(279.9 175.97)"/>
        <path class="cls-2" d="M807.64,658.78H800v-7.67h7.6Zm-7.42,4.71h7.21v35h-7.21Z" transform="translate(279.9 175.97)"/>
        <path class="cls-2" d="M822.33,673.41l-7-.87a10.44,10.44,0,0,1,4.31-7.28,14.78,14.78,0,0,1,8.88-2.6,13.33,13.33,0,0,1,7.53,1.89,8.05,8.05,0,0,1,3.55,4.49,31.14,31.14,0,0,1,.73,7.87v11.92a48.1,48.1,0,0,0,.62,9.68h-6.83a27.68,27.68,0,0,1-.45-5.83q-3.29,6.69-9.83,6.69a9.52,9.52,0,0,1-7.11-2.72,10.07,10.07,0,0,1-2.68-7.4,11.23,11.23,0,0,1,3.93-9q3.93-3.33,13.62-3.33c.32,0,.83,0,1.52,0v-1.42a11.37,11.37,0,0,0-1.13-5.66c-.74-1.27-2.09-1.9-4-1.9C824.84,667.93,823,669.75,822.33,673.41Zm10.82,8c-.92-.09-1.63-.14-2.11-.14q-9.4,0-9.4,7.38,0,5.38,4.66,5.38,2.73,0,4.79-2.91a13.73,13.73,0,0,0,2.06-8Z" transform="translate(279.9 175.97)"/>
        <path class="cls-2" d="M848.33,663.49H855v5.41q2.44-6.24,8.69-6.24a8.94,8.94,0,0,1,5.71,1.7,7.27,7.27,0,0,1,2.75,4.07,35.41,35.41,0,0,1,.57,7.51v22.57h-7.21V676.34c0-3-.27-5.12-.8-6.21s-1.67-1.65-3.41-1.65a4.92,4.92,0,0,0-4.23,2.1q-1.51,2.08-1.51,8.33v19.6h-7.21Z" transform="translate(279.9 175.97)"/>
        <path class="cls-2" d="M905.11,675.28l-7,.76q-.51-4.57-1.76-6.12a4.29,4.29,0,0,0-3.54-1.54,4.88,4.88,0,0,0-4.68,3c-1,2-1.46,5.45-1.46,10.43q0,11.65,6.14,11.66,4.71,0,5.3-7.59l7,.62q-.87,6.94-3.92,9.82a12.41,12.41,0,0,1-8.32,3.08l-.83,2.46h1a6.14,6.14,0,0,1,4.61,1.52,5,5,0,0,1,1.46,3.53,5.18,5.18,0,0,1-2,4.11,7.68,7.68,0,0,1-5.15,1.66,12.71,12.71,0,0,1-6.83-2.18l1-2.6a12.47,12.47,0,0,0,5.2,1.35c1.9,0,2.85-.73,2.85-2.17q0-2.68-4.27-2.69c-.37,0-1.07,0-2.11.07l1.84-5.23q-10.51-2.06-10.51-18.05,0-9.09,3.5-13.79c2.34-3.13,5.73-4.7,10.2-4.7Q903.58,662.66,905.11,675.28Z" transform="translate(279.9 175.97)"/>
        <path class="cls-2" d="M935.55,680.65q0,18.72-13.87,18.72a12.2,12.2,0,0,1-10-4.52Q908,690.32,908,681q0-18.35,13.86-18.34a12.3,12.3,0,0,1,10,4.47Q935.55,671.6,935.55,680.65Zm-7.7.36c0-4.91-.55-8.29-1.64-10.12a5,5,0,0,0-4.44-2.75q-6.09,0-6.09,12.87c0,4.39.48,7.63,1.42,9.73a5,5,0,0,0,9.32,0Q927.85,687.49,927.85,681Z" transform="translate(279.9 175.97)"/>
        <path class="cls-2" d="M942.23,663.49h6.66v5.41q2.43-6.24,8.69-6.24a9,9,0,0,1,5.71,1.7,7.25,7.25,0,0,1,2.74,4.07,34.6,34.6,0,0,1,.58,7.51v22.57H959.4V676.34c0-3-.27-5.12-.8-6.21s-1.67-1.65-3.41-1.65a4.92,4.92,0,0,0-4.23,2.1q-1.51,2.08-1.51,8.33v19.6h-7.22Z" transform="translate(279.9 175.97)"/>
        <path class="cls-2" d="M1006.52,679.81a7.44,7.44,0,0,1-2.21,5.41,7.46,7.46,0,0,1-10.72,0,7.78,7.78,0,0,1,0-10.83,7.45,7.45,0,0,1,10.69,0A7.43,7.43,0,0,1,1006.52,679.81Z" transform="translate(279.9 175.97)"/>
        <path class="cls-2" d="M1031.87,651.18h7.84v40.7h16.74v6.63h-24.58Z" transform="translate(279.9 175.97)"/>
        <path class="cls-2" d="M1067,673.41l-7-.87a10.44,10.44,0,0,1,4.31-7.28,14.76,14.76,0,0,1,8.88-2.6,13.33,13.33,0,0,1,7.53,1.89,8.05,8.05,0,0,1,3.55,4.49,31.62,31.62,0,0,1,.73,7.87v11.92a48.1,48.1,0,0,0,.62,9.68h-6.83a27.68,27.68,0,0,1-.45-5.83q-3.28,6.69-9.83,6.69a9.52,9.52,0,0,1-7.11-2.72,10.07,10.07,0,0,1-2.68-7.4,11.23,11.23,0,0,1,3.93-9q3.93-3.33,13.61-3.33c.33,0,.83,0,1.53,0v-1.42a11.37,11.37,0,0,0-1.13-5.66c-.75-1.27-2.09-1.9-4-1.9C1069.5,667.93,1067.61,669.75,1067,673.41Zm10.82,8c-.93-.09-1.63-.14-2.11-.14q-9.4,0-9.4,7.38,0,5.38,4.66,5.38,2.73,0,4.79-2.91a13.73,13.73,0,0,0,2.06-8Z" transform="translate(279.9 175.97)"/>
        <path class="cls-2" d="M1093,663.49h6.34v7.84q2.93-8.57,8.77-8.57a10,10,0,0,1,1.32.11v7.52a13,13,0,0,0-1.46-.1q-7.77,0-7.76,10.4v17.82H1093Z" transform="translate(279.9 175.97)"/>
        <path class="cls-2" d="M1119.78,673.41l-7-.87a10.48,10.48,0,0,1,4.31-7.28,14.8,14.8,0,0,1,8.88-2.6,13.33,13.33,0,0,1,7.53,1.89,8.05,8.05,0,0,1,3.55,4.49,31.14,31.14,0,0,1,.73,7.87v11.92a48.1,48.1,0,0,0,.62,9.68h-6.83a27.68,27.68,0,0,1-.45-5.83q-3.29,6.69-9.83,6.69a9.52,9.52,0,0,1-7.11-2.72,10.07,10.07,0,0,1-2.68-7.4,11.23,11.23,0,0,1,3.93-9q3.93-3.33,13.62-3.33c.32,0,.83,0,1.52,0v-1.42a11.37,11.37,0,0,0-1.13-5.66c-.74-1.27-2.09-1.9-4-1.9C1122.29,667.93,1120.4,669.75,1119.78,673.41Zm10.82,8c-.92-.09-1.63-.14-2.11-.14q-9.4,0-9.4,7.38,0,5.38,4.66,5.38,2.73,0,4.79-2.91a13.73,13.73,0,0,0,2.06-8Z" transform="translate(279.9 175.97)"/>
        <path class="cls-2" d="M1173,657.91v5.3a8.28,8.28,0,0,0-1.66-.2q-3.19,0-3.78,3.84a11.8,11.8,0,0,1,2.64,7.53,10.8,10.8,0,0,1-3.3,8,12,12,0,0,1-8.87,3.26,17.38,17.38,0,0,1-4.44-.62c-1.76.67-2.63,1.69-2.63,3.05a2.17,2.17,0,0,0,1.4,2.29,36,36,0,0,0,7.44.83,42.52,42.52,0,0,1,7.83,1,7.37,7.37,0,0,1,4.21,2.83,10.26,10.26,0,0,1-2.54,13.69c-2.76,1.84-6.67,2.76-11.76,2.76q-7.35,0-10.73-2.41a7.51,7.51,0,0,1-3.38-6.4c0-3.37,1.7-5.63,5.1-6.76q-3.81-2.11-3.81-5.72,0-4.57,5.16-7-4.5-3-4.51-9a10.78,10.78,0,0,1,3.44-8.3,12.51,12.51,0,0,1,8.84-3.17,14.85,14.85,0,0,1,6.62,1.52q.56-3.63,2.1-5a6.4,6.4,0,0,1,4.48-1.4A15.64,15.64,0,0,1,1173,657.91Zm-20,39.14a4.77,4.77,0,0,0-3,4.47,4,4,0,0,0,2,3.68q1.93,1.17,6.44,1.17,8.33,0,8.32-4.81a3.39,3.39,0,0,0-1.57-3.25q-1.58-.88-6.23-1Q1155,697.16,1153,697.05Zm9.74-22.78q0-6.85-4.75-6.86-5.16,0-5.16,6.93,0,6.74,5,6.73T1162.73,674.27Z" transform="translate(279.9 175.97)"/>
        <path class="cls-2" d="M1177.08,663.49h6.66v5.41q2.43-6.24,8.68-6.24a9,9,0,0,1,5.72,1.7,7.3,7.3,0,0,1,2.74,4.07,35.41,35.41,0,0,1,.57,7.51v22.57h-7.21V676.34c0-3-.26-5.12-.8-6.21s-1.67-1.65-3.41-1.65a4.89,4.89,0,0,0-4.22,2.1q-1.51,2.08-1.52,8.33v19.6h-7.21Z" transform="translate(279.9 175.97)"/>
        <path class="cls-2" d="M1235,682.07h-19.79q0,7.09,1.92,9.46a6,6,0,0,0,4.82,2.36q4.85,0,6.12-6.51l6.62.86q-2.6,11.13-13,11.13a12.5,12.5,0,0,1-10.13-4.54q-3.78-4.55-3.77-13.31,0-9,3.81-13.94a12.24,12.24,0,0,1,10.19-4.92,11.59,11.59,0,0,1,7.52,2.46,13,13,0,0,1,4.3,6.47A38.31,38.31,0,0,1,1235,682.07Zm-7.38-4.89q0-9.25-6-9.25-5.66,0-6.21,9.25Z" transform="translate(279.9 175.97)"/>
        <path class="cls-2" d="M1272.67,679.81a7.48,7.48,0,0,1-2.21,5.41,7.46,7.46,0,0,1-10.72,0,7.75,7.75,0,0,1,0-10.83,7.45,7.45,0,0,1,10.69,0A7.47,7.47,0,0,1,1272.67,679.81Z" transform="translate(279.9 175.97)"/>
        <path class="cls-2" d="M1298,651.18h27.11v6.28h-19.27V671H1321v6.31h-15.11v14.8h19.58v6.42H1298Z" transform="translate(279.9 175.97)"/>
        <path class="cls-2" d="M1330.26,663.49h6.66v5.34q2.55-6.17,8.62-6.17,6.64,0,8,6.52,2.46-6.52,8.87-6.52a9.49,9.49,0,0,1,5.31,1.39,7.19,7.19,0,0,1,3,3.67c.56,1.53.83,4.4.83,8.63v22.16h-7.21V677q0-5-.85-6.72c-.57-1.18-1.71-1.77-3.43-1.77q-5.49,0-5.49,9.53v20.5h-7.21v-21.3a28.65,28.65,0,0,0-.37-5.87,3.82,3.82,0,0,0-1.35-2.1,4.11,4.11,0,0,0-2.55-.76,4.55,4.55,0,0,0-4.3,2.27q-1.27,2.26-1.28,7.43v20.33h-7.21Z" transform="translate(279.9 175.97)"/>
        <path class="cls-2" d="M1379.69,651.18h7.21v16.33a9.37,9.37,0,0,1,8.12-4.64,9.89,9.89,0,0,1,8.62,4.66q3.16,4.66,3.16,12.57,0,19.13-12.93,19.13a8.51,8.51,0,0,1-8.46-5.47,48.12,48.12,0,0,0-1.61,4.75h-4.11Zm7.21,32.5q0,10.08,6.14,10.08a4.83,4.83,0,0,0,4.62-3c1-2,1.45-5.44,1.45-10.21,0-4.6-.49-7.8-1.45-9.61a4.77,4.77,0,0,0-4.48-2.72,5.43,5.43,0,0,0-4.47,2.42,10.76,10.76,0,0,0-1.81,6.55Z" transform="translate(279.9 175.97)"/>
        <path class="cls-2" d="M1413.42,663.49h6.34v7.84q2.92-8.57,8.77-8.57a10,10,0,0,1,1.32.11v7.52a13,13,0,0,0-1.46-.1q-7.76,0-7.76,10.4v17.82h-7.21Z" transform="translate(279.9 175.97)"/>
        <path class="cls-2" d="M1432.38,663.49h7.21v22.26c0,3.09.26,5.17.77,6.22s1.63,1.58,3.37,1.58a4.58,4.58,0,0,0,4.52-2.81q1.29-2.81,1.29-10.4V663.49h7.21v35h-6.66v-5.27q-2.79,6.13-8.89,6.13a9,9,0,0,1-5.1-1.32,7.15,7.15,0,0,1-2.85-3.74q-.87-2.43-.87-8.42Z" transform="translate(279.9 175.97)"/>
        <path class="cls-2" d="M1465.17,663.49h6.66v5.41q2.43-6.24,8.68-6.24a9,9,0,0,1,5.72,1.7,7.3,7.3,0,0,1,2.74,4.07,35.41,35.41,0,0,1,.57,7.51v22.57h-7.21V676.34c0-3-.26-5.12-.8-6.21s-1.67-1.65-3.41-1.65a4.91,4.91,0,0,0-4.22,2.1q-1.51,2.08-1.52,8.33v19.6h-7.21Z" transform="translate(279.9 175.97)"/>
        <path class="cls-2" d="M1529.46,679.81a7.48,7.48,0,0,1-2.21,5.41,7.46,7.46,0,0,1-10.72,0,7.75,7.75,0,0,1,0-10.83,7.45,7.45,0,0,1,10.69,0A7.47,7.47,0,0,1,1529.46,679.81Z" transform="translate(279.9 175.97)"/>
        <path class="cls-2" d="M1563.69,651.18h8.79l12.7,47.33h-7.93l-3-11.86h-13.87l-3,11.86H1550Zm9,29.3-5.43-21.67-5.38,21.67Z" transform="translate(279.9 175.97)"/>
        <path class="cls-2" d="M1596.9,658.78h-7.6v-7.67h7.6Zm-7.42,4.71h7.21v35h-7.21Z" transform="translate(279.9 175.97)"/>
        <path class="cls-2" d="M1632.29,657.91v5.3a8.37,8.37,0,0,0-1.67-.2q-3.18,0-3.78,3.84a11.8,11.8,0,0,1,2.64,7.53,10.83,10.83,0,0,1-3.29,8,12.06,12.06,0,0,1-8.88,3.26,17.38,17.38,0,0,1-4.44-.62c-1.75.67-2.63,1.69-2.63,3.05a2.18,2.18,0,0,0,1.4,2.29,36.1,36.1,0,0,0,7.44.83,42.53,42.53,0,0,1,7.84,1,7.4,7.4,0,0,1,4.21,2.83,10.28,10.28,0,0,1-2.55,13.69q-4.12,2.76-11.75,2.76-7.35,0-10.73-2.41a7.48,7.48,0,0,1-3.38-6.4c0-3.37,1.7-5.63,5.09-6.76q-3.81-2.11-3.81-5.72,0-4.57,5.17-7-4.51-3-4.51-9a10.77,10.77,0,0,1,3.43-8.3,12.54,12.54,0,0,1,8.84-3.17,14.82,14.82,0,0,1,6.62,1.52q.56-3.63,2.1-5a6.43,6.43,0,0,1,4.49-1.4A15.75,15.75,0,0,1,1632.29,657.91Zm-20,39.14a4.76,4.76,0,0,0-3,4.47,4,4,0,0,0,1.94,3.68q1.93,1.17,6.45,1.17,8.33,0,8.32-4.81a3.4,3.4,0,0,0-1.58-3.25q-1.58-.88-6.22-1Q1614.27,697.16,1612.28,697.05Zm9.75-22.78c0-4.57-1.59-6.86-4.75-6.86q-5.17,0-5.17,6.93c0,4.49,1.67,6.73,5,6.73S1622,678.8,1622,674.27Z" transform="translate(279.9 175.97)"/>
        <path class="cls-2" d="M1636.13,663.49h7.21v22.26c0,3.09.26,5.17.77,6.22s1.63,1.58,3.37,1.58a4.59,4.59,0,0,0,4.53-2.81q1.27-2.81,1.28-10.4V663.49h7.21v35h-6.65v-5.27q-2.8,6.13-8.89,6.13a9.08,9.08,0,0,1-5.11-1.32,7.21,7.21,0,0,1-2.85-3.74q-.87-2.43-.87-8.42Z" transform="translate(279.9 175.97)"/>
        <path class="cls-2" d="M1676.34,658.78h-7.59v-7.67h7.59Zm-7.42,4.71h7.21v35h-7.21Z" transform="translate(279.9 175.97)"/>
        <path class="cls-2" d="M1684.56,651.18h7.21v47.33h-7.21Z" transform="translate(279.9 175.97)"/>
        <path class="cls-2" d="M1700.15,651.18h7.22v47.33h-7.22Z" transform="translate(279.9 175.97)"/>
        <path class="cls-2" d="M1741.16,682.07h-19.79q0,7.09,1.92,9.46a6,6,0,0,0,4.82,2.36q4.85,0,6.12-6.51l6.62.86q-2.6,11.13-13,11.13a12.5,12.5,0,0,1-10.12-4.54q-3.78-4.55-3.78-13.31,0-9,3.82-13.94a12.24,12.24,0,0,1,10.19-4.92,11.59,11.59,0,0,1,7.52,2.46,13.11,13.11,0,0,1,4.3,6.47A38.31,38.31,0,0,1,1741.16,682.07Zm-7.38-4.89q0-9.25-6-9.25-5.65,0-6.21,9.25Z" transform="translate(279.9 175.97)"/>
        <path class="cls-2" d="M1768.1,671.67l-5.65,1.53c-1-3.52-3-5.27-5.93-5.27a4.32,4.32,0,0,0-3.24,1.25,4.22,4.22,0,0,0-1.23,3.08,3.61,3.61,0,0,0,1.24,3,22.34,22.34,0,0,0,5.72,2.43q5.52,1.83,7.94,4.14a8.44,8.44,0,0,1,2.43,6.43,10.31,10.31,0,0,1-3.47,7.86q-3.47,3.2-9.36,3.2-11.13,0-12.62-10.19l6.14-1.14q1.18,6,6.69,6a5.62,5.62,0,0,0,4.18-1.39,4.53,4.53,0,0,0,1.37-3.29,4.43,4.43,0,0,0-.94-2.62c-.62-.87-2.37-1.76-5.23-2.69a37.28,37.28,0,0,1-6.23-2.46,9.33,9.33,0,0,1-3.45-3.31,9.07,9.07,0,0,1-1.35-4.9,10.17,10.17,0,0,1,3.26-7.61,11.61,11.61,0,0,1,8.43-3.14Q1765.56,662.66,1768.1,671.67Z" transform="translate(279.9 175.97)"/>
        <path class="cls-2" d="M1806.49,679.81a7.45,7.45,0,0,1-2.22,5.41,7.45,7.45,0,0,1-10.71,0,7.76,7.76,0,0,1,0-10.83,7.45,7.45,0,0,1,10.69,0A7.44,7.44,0,0,1,1806.49,679.81Z" transform="translate(279.9 175.97)"/>
        <path class="cls-2" d="M1831.84,651.18h14.32a29.4,29.4,0,0,1,8.21.87,8.78,8.78,0,0,1,4.75,3.87,13.06,13.06,0,0,1,1.94,7.29q0,7.88-7,10.37,8.51,2.67,8.5,11.89a13.57,13.57,0,0,1-3.35,9.13q-3.35,3.92-12.81,3.91h-14.52Zm7.66,19.62h5q5.24,0,6.9-1.92a7.37,7.37,0,0,0,1.66-5q0-3.57-1.91-5.12t-5.89-1.54h-5.72Zm0,21.43h6.31q8.67,0,8.67-7.66a8.48,8.48,0,0,0-1.84-5.34c-1.23-1.57-3.72-2.36-7.49-2.36h-5.65Z" transform="translate(279.9 175.97)"/>
        <path class="cls-2" d="M1876.62,673.41l-7-.87a10.44,10.44,0,0,1,4.31-7.28,14.76,14.76,0,0,1,8.88-2.6,13.33,13.33,0,0,1,7.53,1.89,8.1,8.1,0,0,1,3.55,4.49,31.72,31.72,0,0,1,.72,7.87v11.92q0,7.24.63,9.68h-6.83a27.68,27.68,0,0,1-.45-5.83q-3.3,6.69-9.83,6.69a9.49,9.49,0,0,1-7.11-2.72,10.07,10.07,0,0,1-2.68-7.4,11.23,11.23,0,0,1,3.92-9q3.93-3.33,13.62-3.33c.32,0,.83,0,1.52,0v-1.42a11.39,11.39,0,0,0-1.12-5.66c-.75-1.27-2.09-1.9-4-1.9C1879.14,667.93,1877.25,669.75,1876.62,673.41Zm10.82,8c-.92-.09-1.62-.14-2.11-.14q-9.39,0-9.4,7.38,0,5.38,4.67,5.38,2.73,0,4.78-2.91c1.38-1.95,2.06-4.62,2.06-8Z" transform="translate(279.9 175.97)"/>
        <path class="cls-2" d="M1902.62,663.49H1909v7.84q2.92-8.57,8.76-8.57a10.28,10.28,0,0,1,1.33.11v7.52a13.31,13.31,0,0,0-1.47-.1q-7.75,0-7.76,10.4v17.82h-7.21Z" transform="translate(279.9 175.97)"/>
        <path class="cls-2" d="M1947.17,675.28l-7,.76q-.53-4.57-1.77-6.12a4.27,4.27,0,0,0-3.53-1.54,4.88,4.88,0,0,0-4.68,3q-1.46,3-1.46,10.42,0,11.65,6.14,11.65,4.71,0,5.3-7.59l7,.62q-1.43,12.93-12.79,12.93-6.74,0-10-4.85t-3.24-13.42q0-9,3.5-13.73t10.19-4.71Q1945.65,662.66,1947.17,675.28Z" transform="translate(279.9 175.97)"/>
        <path class="cls-2" d="M1977.22,682.07h-19.8q0,7.09,1.92,9.46a6,6,0,0,0,4.83,2.36q4.83,0,6.12-6.51l6.62.86q-2.61,11.13-13,11.13a12.48,12.48,0,0,1-10.12-4.54q-3.78-4.55-3.78-13.31,0-9,3.81-13.94a12.26,12.26,0,0,1,10.2-4.92,11.59,11.59,0,0,1,7.52,2.46,13.11,13.11,0,0,1,4.3,6.47A38.31,38.31,0,0,1,1977.22,682.07Zm-7.38-4.89q0-9.25-6-9.25-5.64,0-6.2,9.25Z" transform="translate(279.9 175.97)"/>
        <path class="cls-2" d="M1983.11,651.18h7.21v47.33h-7.21Z" transform="translate(279.9 175.97)"/>
        <path class="cls-2" d="M2024.5,680.65q0,18.72-13.87,18.72a12.21,12.21,0,0,1-10-4.52q-3.66-4.53-3.66-13.85,0-18.35,13.87-18.34a12.29,12.29,0,0,1,10,4.47Q2024.5,671.6,2024.5,680.65Zm-7.69.36c0-4.91-.55-8.29-1.65-10.12a5,5,0,0,0-4.44-2.75q-6.08,0-6.08,12.87,0,6.59,1.41,9.73a5,5,0,0,0,9.32,0Q2016.81,687.49,2016.81,681Z" transform="translate(279.9 175.97)"/>
        <path class="cls-2" d="M2031.19,663.49h6.65v5.41q2.43-6.24,8.69-6.24a9,9,0,0,1,5.71,1.7,7.32,7.32,0,0,1,2.75,4.07,35.41,35.41,0,0,1,.57,7.51v22.57h-7.21V676.34c0-3-.27-5.12-.8-6.21s-1.67-1.65-3.41-1.65a4.92,4.92,0,0,0-4.23,2.1q-1.52,2.08-1.51,8.33v19.6h-7.21Z" transform="translate(279.9 175.97)"/>
        <path class="cls-2" d="M2063.7,663.49h6.66v5.41q2.43-6.24,8.68-6.24a9,9,0,0,1,5.72,1.7,7.25,7.25,0,0,1,2.74,4.07,35.26,35.26,0,0,1,.58,7.51v22.57h-7.21V676.34c0-3-.27-5.12-.8-6.21s-1.67-1.65-3.41-1.65a4.92,4.92,0,0,0-4.23,2.1q-1.51,2.08-1.51,8.33v19.6h-7.22Z" transform="translate(279.9 175.97)"/>
        <path class="cls-2" d="M2121.67,682.07h-19.8q0,7.09,1.92,9.46a6,6,0,0,0,4.82,2.36q4.84,0,6.12-6.51l6.62.86q-2.59,11.13-13,11.13a12.5,12.5,0,0,1-10.13-4.54q-3.78-4.55-3.77-13.31,0-9,3.81-13.94a12.24,12.24,0,0,1,10.19-4.92,11.59,11.59,0,0,1,7.52,2.46,13,13,0,0,1,4.3,6.47A38.65,38.65,0,0,1,2121.67,682.07Zm-7.39-4.89q0-9.25-6-9.25-5.65,0-6.21,9.25Z" transform="translate(279.9 175.97)"/>
        <path class="cls-2" d="M2129.22,654.37l6.52-.62v9.74h6.69v5.82h-6.69v15.44a46.44,46.44,0,0,0,.2,5.42,3.4,3.4,0,0,0,1.25,2.18,5.52,5.52,0,0,0,3.47.85,20.28,20.28,0,0,0,2.91-.24v5.78a25.64,25.64,0,0,1-5.41.63,10.3,10.3,0,0,1-6.2-1.58,6.89,6.89,0,0,1-2.74-4.28,42.33,42.33,0,0,1-.59-8.25v-16h-4.54v-5.82h4.75Z" transform="translate(279.9 175.97)"/>
        <path class="cls-2" d="M2148.42,654.37l6.52-.62v9.74h6.69v5.82h-6.69v15.44a43.51,43.51,0,0,0,.21,5.42,3.36,3.36,0,0,0,1.25,2.18,5.49,5.49,0,0,0,3.46.85,20.3,20.3,0,0,0,2.92-.24v5.78a25.79,25.79,0,0,1-5.41.63,10.32,10.32,0,0,1-6.21-1.58,7,7,0,0,1-2.74-4.28,42.33,42.33,0,0,1-.59-8.25v-16h-4.54v-5.82H2148Z" transform="translate(279.9 175.97)"/>
        <path class="cls-2" d="M2192.14,682.07h-19.8q0,7.09,1.92,9.46a6,6,0,0,0,4.82,2.36q4.85,0,6.12-6.51l6.62.86q-2.59,11.13-13,11.13a12.5,12.5,0,0,1-10.13-4.54q-3.78-4.55-3.77-13.31,0-9,3.81-13.94a12.24,12.24,0,0,1,10.19-4.92,11.59,11.59,0,0,1,7.52,2.46,13,13,0,0,1,4.3,6.47A37.88,37.88,0,0,1,2192.14,682.07Zm-7.39-4.89q0-9.25-6-9.25-5.66,0-6.21,9.25Z" transform="translate(279.9 175.97)"/>
      </g>
      <g>
        <path class="cls-3" d="M577.72,262.85,508.15,503.12h42.43l14.62-58.95h65.08L645,503.12h44.65L625.17,262.85Zm43.63,145.64H574l23.54-94.89Z" transform="translate(279.9 175.97)"/>
        <rect class="cls-3" x="985.35" y="438.82" width="40.85" height="240.28"/>
        <path class="cls-3" d="M861.44,321.1c-17.43,0-31,7.95-40.52,23.66V324H782.83v238h40.85V490c9.28,10.77,21.41,16.21,36.15,16.21,21.49,0,37.57-9.42,47.79-28,10-18.1,15-40.31,15-66,0-28.77-5.6-51.32-16.63-67C894.76,329.2,879.77,321.1,861.44,321.1ZM852,352.3c18.13,0,27.32,20.13,27.32,59.82,0,41.05-9.42,61.87-28,61.87a23.48,23.48,0,0,1-15.85-6,29,29,0,0,1-9.41-14.75c-1.59-6-2.4-14.57-2.4-25.44V398.86c0-15.13,2.82-26.87,8.38-34.89C837.5,356.12,844,352.3,852,352.3Z" transform="translate(279.9 175.97)"/>
        <path class="cls-3" d="M1082,418.88c-.35-21.62-2.65-39.4-6.84-52.84-4.27-13.69-11.73-24.91-22.19-33.35s-23.63-12.79-39-12.79c-21.86,0-39.57,8.56-52.65,25.44C948.46,362,941.9,385.86,941.9,416.16c0,29.54,6.52,52.35,19.37,67.79s30.54,23.48,52.25,23.48c35.51,0,58-19.26,66.9-57.26l.63-2.69-38-5-.45,2.3c-4,20.45-13.16,30.39-28,30.39-8.92,0-16.13-3.55-22-10.85-5.74-7.08-8.76-21.51-9-42.93h98.45Zm-69.21-67.78c18,0,27,13.42,27.47,41H984.66C986.81,364.52,996,351.1,1012.83,351.1Z" transform="translate(279.9 175.97)"/>
        <path class="cls-3" d="M1169.06,395c-14.48-4.72-23.79-8.64-27.68-11.66-3.53-2.74-5.24-7.06-5.24-13.2a18.43,18.43,0,0,1,5.4-13.58c3.62-3.68,8.31-5.46,14.34-5.46,13.35,0,22.21,8,27.07,24.41l.7,2.34,32.89-8.88-.69-2.43c-8.69-31-28.4-46.64-58.6-46.64-17.71,0-32.38,5.48-43.61,16.3s-17,24.17-17,39.63a47.76,47.76,0,0,0,7.1,25.71,48.82,48.82,0,0,0,18.07,17.34c7.06,3.85,17.62,8,31.37,12.42,17,5.49,22.86,9.79,24.77,12.44a19.42,19.42,0,0,1-1.91,26.17c-4,4.08-10.42,6.15-19,6.15-17.06,0-27.13-9.15-30.81-28l-.48-2.43-35.3,6.58.34,2.38c5.13,35,27.07,52.81,65.22,52.81,20.09,0,36.32-5.59,48.23-16.61s18-24.82,18-40.87c0-14.32-4.32-25.69-12.84-33.79C1201.2,408.3,1187.61,401.18,1169.06,395Z" transform="translate(279.9 175.97)"/>
        <path class="cls-3" d="M1399.48,337.81c-8.34-11.09-20.81-16.71-37.18-16.71-18.77,0-34,8.44-45.27,25.06-11.06,16.32-16.66,39.29-16.66,68.28,0,27,5.06,49.17,15,65.92,10.22,17.16,25.77,25.86,46.21,25.86,17.9,0,31.52-7.3,40.62-21.74v18.64h38.09V262.85h-40.85Zm0,60.36V428c0,17.19-3,29.32-8.89,36.05s-12.21,10-19.29,10c-18.36,0-27.67-21.16-27.67-62.91,0-39,9.2-58.78,27.33-58.78,6.44,0,12.86,3.36,19.08,10S1399.48,381,1399.48,398.17Z" transform="translate(279.9 175.97)"/>
        <path class="cls-3" d="M1560.79,410.3c0,24.69-2.07,41.73-6.17,50.67-3.86,8.41-10.47,12.5-20.21,12.5-7.68,0-12.43-2.1-14.53-6.43-2.36-4.86-3.55-14.9-3.55-29.85V324h-40.86V437.88c0,20.36,1.46,34.34,4.45,42.72a38.8,38.8,0,0,0,15.16,19.87c7,4.62,16,7,26.76,7,18,0,32-7.76,41.71-23.11v18.8h38.1V324h-40.86Z" transform="translate(279.9 175.97)"/>
        <path class="cls-3" d="M1825.91,377.17c-8.71-5.57-21.28-11.51-37.34-17.64-18.39-7-30.77-13-36.8-18-5.7-4.67-8.47-10.8-8.47-18.73a27.22,27.22,0,0,1,7.69-19.14c5.13-5.56,12.28-8.27,21.87-8.27,10.32,0,18.53,2.78,24.4,8.25,6,5.62,11,14.55,14.75,26.54l.77,2.46,37.92-13.16-.63-2.26c-10.86-39-36.32-58.71-75.66-58.71-22.18,0-40.26,6.67-53.72,19.84s-20.31,29.68-20.31,49a65,65,0,0,0,9.15,34.22c6,10,13.5,17.61,22.15,22.74,8.41,5,22.26,11.14,41.15,18.28,17.28,6.58,28.16,12.74,32.33,18.3a29.52,29.52,0,0,1,6.22,18c0,8.92-3,16.21-9,22.27s-15,9-26.76,9c-24.5,0-39.26-13.56-45.12-41.45l-.55-2.62-39.7,11.2.55,2.33c10.59,45,38.55,67.77,83.1,67.77,25.73,0,46.07-7.26,60.45-21.58S1856,453.94,1856,433.57c0-12.56-2.81-23.8-8.35-33.39A66.3,66.3,0,0,0,1825.91,377.17Z" transform="translate(279.9 175.97)"/>
        <path class="cls-3" d="M1967.52,410.3c0,24.69-2.07,41.73-6.17,50.67-3.86,8.41-10.47,12.5-20.21,12.5-7.68,0-12.43-2.1-14.53-6.43-2.36-4.86-3.56-14.9-3.56-29.85V324H1882.2V437.88c0,20.36,1.46,34.34,4.45,42.72a38.8,38.8,0,0,0,15.16,19.87c7,4.62,16,7,26.76,7,18,0,32-7.76,41.71-23.11v18.8h38.09V324h-40.85Z" transform="translate(279.9 175.97)"/>
        <path class="cls-3" d="M2135.73,262.85v75c-8.34-11.09-20.81-16.71-37.18-16.71-18.77,0-34,8.44-45.26,25.06-11.06,16.32-16.67,39.29-16.67,68.28,0,27,5.06,49.17,15,65.92,10.23,17.16,25.78,25.86,46.21,25.86,17.9,0,31.52-7.3,40.62-21.74v18.64h38.09V262.85Zm0,135.32V428c0,17.19-3,29.32-8.89,36.05s-12.21,10-19.29,10c-18.35,0-27.66-21.16-27.66-62.91,0-39,9.19-58.78,27.32-58.78,6.45,0,12.87,3.36,19.09,10S2135.73,381,2135.73,398.17Z" transform="translate(279.9 175.97)"/>
      </g>
      <path class="cls-2" d="M-279.9,623.84s18,6,30.08-12S84,26.83,84,26.83L377.26,566.69h-81.2S269,556.17,257,596.77s-22.56,73.69-22.56,73.69l-73.68-403s-6-21.06-30.08-21.06-28.57,22.56-28.57,22.56L44.92,562.18,17.85,478S8.83,453.16-7,453.16s-27.82,12.78-33.83,26.31S-84.4,571.21-84.4,571.21l-81.21-1.51s-24.06,0-25.56,18c31.58,4.51,130.83,21,130.83,21l40.6-58.65L25.37,688.5s9,18,24.06,18S78,697.53,81,690s49.63-255.65,49.63-255.65l70.68,366.93s3,16.54,21.05,16.54,30.08-3,31.58-13.53c6-10.53,58.65-175.95,58.65-175.95s0-6,6-6,1872.24-46.62,1872.24-46.62-3-12-13.54-10.53-1733.89,0-1733.89,0l-335.35-609s-6-18-22.55-18S60-45.35,60-45.35Z" transform="translate(279.9 175.97)"/>
    </g>
  </g>
</svg>
